# Blender v2.78 (sub 0) OBJ File: ''
# www.blender.org
mtllib my_first_block.mtl
o Cube
v 1.000246 -1.000000 -1.000000
v 1.000246 -1.000000 1.000000
v -0.999754 -1.000000 1.000000
v -0.999754 -1.000000 -1.000000
v 1.000246 0.000000 -0.999999
v 1.000245 0.000000 1.000001
v -0.999755 0.000000 1.000000
v -0.999754 0.000000 -1.000000
v 0.000245 1.000000 1.000000
v 0.000246 1.000000 -1.000000
v -0.999754 1.000000 -0.000000
v 0.000246 1.000000 0.000000
v 1.000246 1.000000 0.000001
vn 0.0000 -1.0000 0.0000
vn 0.4082 0.8165 -0.4082
vn 1.0000 0.0000 0.0000
vn -0.0000 -0.0000 1.0000
vn -1.0000 -0.0000 -0.0000
vn 0.0000 0.0000 -1.0000
vn -0.4082 0.8165 0.4082
vn -0.4082 0.8165 -0.4082
vn 0.4082 0.8165 0.4082
usemtl Material
s off
f 1//1 2//1 3//1 4//1
f 5//2 10//2 12//2 13//2
f 1//3 5//3 13//3 6//3 2//3
f 2//4 6//4 9//4 7//4 3//4
f 3//5 7//5 11//5 8//5 4//5
f 5//6 1//6 4//6 8//6 10//6
f 9//7 12//7 11//7 7//7
f 11//8 12//8 10//8 8//8
f 13//9 12//9 9//9 6//9
